<svg width="28" height="29" viewBox="0 0 28 29" fill="none" xmlns="http://www.w3.org/2000/svg">
<path d="M17.3409 28.7119C15.9861 28.683 14.5452 28.4173 13.1238 28.0203C11.3845 27.5344 9.72851 26.8512 8.1268 26.0142C6.40241 25.1131 5.20023 23.7528 4.35089 22.0227C3.20929 19.6972 2.35789 17.2642 1.66536 14.7773C1.07658 12.6628 0.570514 10.525 0.0447038 8.39336C-0.150304 7.60265 0.307567 7.05477 1.12794 7.04957C4.76124 7.02659 8.29106 6.43224 11.695 5.13708C14.6576 4.00993 17.3539 2.42227 19.8169 0.429956C19.875 0.383035 19.9328 0.335779 19.9916 0.289804C20.608 -0.192084 21.2944 -0.068854 21.6484 0.628473C22.5986 2.50071 23.5639 4.36663 24.456 6.26663C25.5257 8.54461 26.4981 10.8686 27.1201 13.3158C27.3528 14.2315 27.517 15.1746 27.6032 16.1152C27.7129 17.3123 27.3072 18.433 26.8626 19.5236C25.8091 22.1081 24.3609 24.4428 22.4199 26.4577C22.1982 26.6877 21.9603 26.9034 21.7189 27.1129C20.3556 28.2964 19.2692 28.7024 17.3409 28.7119ZM2.2933 9.0765C2.31285 9.16921 2.32064 9.21954 2.33415 9.26823C2.98378 11.6202 3.59554 13.9837 4.29628 16.3204C4.8567 18.1891 5.55837 20.0108 6.50846 21.7261C7.00555 22.6235 7.66432 23.3601 8.54768 23.8862C11.1204 25.4187 13.8944 26.3415 16.8721 26.657C18.4343 26.8224 19.7307 26.3201 20.8198 25.1913C22.7814 23.1582 24.2368 20.814 25.2039 18.1615C25.5426 17.2327 25.7006 16.2786 25.4859 15.3015C25.2985 14.4489 25.1065 13.5927 24.8386 12.7635C23.8531 9.71211 22.4991 6.81559 21.0737 3.95121C20.8515 3.50482 20.6188 3.06368 20.3802 2.59915C15.0237 6.67748 9.00205 8.81782 2.2933 9.0765Z" fill="#F1F1F1"/>
<path d="M15.9893 23.455C14.8092 23.3774 13.6969 23.106 12.6289 22.6411C12.0369 22.3834 11.7829 21.7885 12.0195 21.2341C12.2504 20.6933 12.8406 20.4569 13.4229 20.6872C14.3489 21.0535 15.2927 21.3179 16.3023 21.274C16.851 21.25 17.3259 21.0496 17.7476 20.708C18.4611 20.1302 18.9721 19.3936 19.3991 18.5911C19.6732 18.0757 20.1536 17.8481 20.6512 17.9951C21.2275 18.1654 21.6138 18.7755 21.3635 19.3129C20.5638 21.0298 19.4643 22.4935 17.597 23.1565C17.0897 23.3367 16.5267 23.3598 15.9893 23.455Z" fill="#F1F1F1"/>
<path d="M19.6139 8.52847C20.1586 8.64697 20.7099 8.74162 21.2462 8.89023C21.8471 9.05676 22.1494 9.62929 21.9847 10.2016C21.8234 10.762 21.2577 11.0498 20.6518 10.9211C20.1947 10.824 19.7256 10.7154 19.2637 10.7235C18.3941 10.7388 17.8122 11.2776 17.3598 11.9665C17.1309 12.3147 16.8637 12.5774 16.4224 12.6043C15.6419 12.6518 15.0322 11.8348 15.4019 11.1477C16.2662 9.54126 17.7311 8.51402 19.6139 8.52847Z" fill="#F1F1F1"/>
<path d="M10.1182 12.0887C10.3878 12.1474 10.9279 12.2413 11.4543 12.3853C12.0875 12.5587 12.4 13.1161 12.2328 13.6979C12.0624 14.2908 11.4935 14.5615 10.8435 14.4067C10.4208 14.306 9.98139 14.2136 9.5509 14.2199C8.66809 14.2327 8.07038 14.7633 7.61215 15.4648C7.36941 15.8365 7.08272 16.1055 6.61153 16.1086C5.84333 16.1138 5.28492 15.2975 5.65743 14.6269C6.55444 13.0126 7.98844 12.0264 10.1182 12.0887Z" fill="#F1F1F1"/>
</svg>
