<svg width="26" height="30" viewBox="0 0 26 30" fill="none" xmlns="http://www.w3.org/2000/svg">
<path d="M14.4056 19.6025H11.5179C11.1234 19.6025 10.8008 20.0922 10.8008 20.6957V29.1642H15.1213V20.6957C15.1213 20.0922 14.8002 19.6025 14.4056 19.6025Z" fill="#F1F1F1"/>
<path d="M24.4722 8.88618L15.8367 1.10751C15.0171 0.370132 13.9902 0 12.9619 0C11.9349 0 10.9082 0.370132 10.0887 1.10751L1.45312 8.88618C0.528564 9.71864 0 10.9097 0 12.1627V24.782C0 27.203 1.93701 29.1646 4.32788 29.1646H8.64136V20.5549C8.64136 18.8353 9.9303 17.4426 11.5189 17.4426H14.4065C15.995 17.4426 17.2826 18.8353 17.2826 20.5549V29.1646H21.5975C23.9869 29.1646 25.924 27.203 25.924 24.782V12.1627C25.924 10.9097 25.3967 9.71864 24.4722 8.88618Z" fill="#F1F1F1"/>
</svg>
