<svg width="27" height="28" viewBox="0 0 27 28" fill="none" xmlns="http://www.w3.org/2000/svg">
<path d="M3.99518 0C10.2178 0 16.4404 0 22.6631 0C22.7577 0.0231323 22.8515 0.0494385 22.9469 0.0689697C24.9862 0.486572 26.4619 2.0965 26.6151 4.17444C26.6948 5.25452 26.6563 6.34406 26.6568 7.42938C26.6592 12.5109 26.6607 17.5925 26.6536 22.674C26.6505 24.9216 25.2324 26.7484 23.1289 27.2465C22.9565 27.2874 22.7828 27.3235 22.6098 27.3618H4.04854C3.95363 27.3401 3.85936 27.3151 3.76373 27.2973C1.72763 26.9172 0.224303 25.2689 0.0359791 23.2066C0.0190113 23.0208 0.00411876 22.8339 0.00404247 22.6473C0.00141796 16.6669 -0.00178639 10.6865 0.00120433 4.70599C0.00227245 2.54083 1.28029 0.779663 3.27222 0.178528C3.50957 0.106934 3.75404 0.0588989 3.99518 0ZM13.302 20.4518C17.0175 20.4518 20.733 20.452 24.4484 20.4516C24.9052 20.4515 24.9111 20.4456 24.9111 19.9893C24.9108 15.8035 24.9101 11.6177 24.9092 7.43182C24.9091 6.93958 24.9048 6.93481 24.4226 6.93481C17.0272 6.93457 9.63191 6.93457 2.23653 6.93481C1.75386 6.93481 1.74914 6.93988 1.74908 7.43103C1.74815 11.608 1.74759 15.7849 1.74716 19.9618C1.74708 20.4508 1.74794 20.4516 2.23575 20.4517C5.92453 20.4519 9.61325 20.4518 13.302 20.4518ZM16.4214 5.18292C17.0782 5.18292 17.7351 5.1767 18.3918 5.1861C18.6349 5.18958 18.7201 5.09186 18.7182 4.85345C18.7104 3.91077 18.712 2.96808 18.7166 2.02539C18.7176 1.81738 18.6503 1.71552 18.4254 1.71643C17.1117 1.7218 15.7981 1.72168 14.4844 1.71625C14.2648 1.71527 14.1872 1.80365 14.1886 2.01849C14.1946 2.97003 14.1954 3.92163 14.1879 4.87317C14.186 5.10571 14.2787 5.18823 14.5042 5.18555C15.1432 5.17786 15.7823 5.18292 16.4214 5.18292ZM16.4491 22.1759C15.8095 22.1759 15.1698 22.1828 14.5303 22.1725C14.2807 22.1684 14.1815 22.2554 14.1842 22.5134C14.1941 23.4479 14.1944 24.3827 14.1835 25.3172C14.1805 25.5817 14.2907 25.6517 14.5348 25.6503C15.8141 25.6428 17.0934 25.6426 18.3727 25.6503C18.6207 25.6517 18.7248 25.5717 18.7222 25.3126C18.7126 24.3782 18.7123 23.4434 18.7214 22.5088C18.7239 22.247 18.6122 22.1691 18.3681 22.1727C17.7286 22.1821 17.0888 22.1759 16.4491 22.1759ZM10.3089 1.71838C9.6962 1.71838 9.08348 1.71722 8.47075 1.71887C8.12688 1.71979 8.09816 1.7453 8.09723 2.07715C8.09474 2.99359 8.09453 3.91003 8.09717 4.82648C8.09802 5.14795 8.13151 5.1817 8.44931 5.18225C9.67474 5.18445 10.9003 5.17883 12.1256 5.18677C12.3746 5.18842 12.4746 5.10767 12.4716 4.84796C12.461 3.91388 12.4622 2.97949 12.4709 2.04535C12.4731 1.80566 12.3925 1.71039 12.1471 1.71497C11.5345 1.7262 10.9216 1.71863 10.3089 1.71838ZM10.2698 25.6464C10.9009 25.6464 11.532 25.6423 12.163 25.6487C12.3712 25.6508 12.4741 25.5831 12.4726 25.3575C12.4665 24.3958 12.4664 23.434 12.4721 22.4722C12.4733 22.251 12.378 22.1737 12.1667 22.1744C10.9135 22.1785 9.66028 22.1791 8.40706 22.1741C8.17697 22.1732 8.09103 22.2711 8.09218 22.4952C8.09695 23.4391 8.09795 24.3832 8.09074 25.3272C8.0889 25.574 8.19563 25.6531 8.42999 25.6496C9.04314 25.6405 9.65651 25.6465 10.2698 25.6464ZM4.05147 22.1766C3.3853 22.1766 2.71921 22.1768 2.05305 22.1765C1.89943 22.1765 1.77951 22.202 1.75015 22.3951C1.52513 23.8719 2.57892 25.3665 4.06209 25.5808C4.69859 25.6728 5.3547 25.6334 6.00206 25.6447C6.31416 25.6501 6.3475 25.6107 6.34828 25.2853C6.35049 24.3687 6.35049 23.452 6.34764 22.5354C6.34665 22.2141 6.31131 22.1785 5.99664 22.1769C5.3483 22.1736 4.69987 22.1759 4.05147 22.1766ZM4.0219 5.18317C4.67964 5.18317 5.3374 5.18518 5.99515 5.18225C6.31216 5.18091 6.34116 5.14862 6.34529 4.8244C6.34828 4.5929 6.3463 4.36133 6.34622 4.12976C6.34601 3.43512 6.34672 2.74042 6.34437 2.04578C6.34395 1.90424 6.35799 1.72302 6.15355 1.72821C5.39162 1.74756 4.61095 1.68738 3.87262 1.83466C2.47203 2.11401 1.55962 3.54047 1.75151 4.95923C1.77765 5.1524 1.8923 5.18292 2.04863 5.18268C2.70639 5.18188 3.36413 5.18231 4.0219 5.18317ZM22.6693 22.1761C22.0303 22.1761 21.3912 22.1815 20.7523 22.1733C20.5226 22.1704 20.43 22.2639 20.4369 22.4901C20.4451 22.7567 20.438 23.0237 20.438 23.2905C20.4379 23.9752 20.4373 24.66 20.4389 25.3447C20.4393 25.481 20.4417 25.6428 20.6277 25.6377C21.3443 25.618 22.0733 25.6586 22.7738 25.5375C23.8502 25.3514 25.0034 24.2889 24.9136 22.5626C24.8952 22.2097 24.8795 22.1778 24.5332 22.1764C23.9119 22.174 23.2907 22.1757 22.6693 22.1761ZM22.6703 5.18286C23.3094 5.18286 23.9486 5.1825 24.5879 5.18304C24.7493 5.18317 24.8872 5.16821 24.9062 4.95465C25.0772 3.03174 23.7398 1.89978 22.5022 1.76648C21.94 1.70587 21.3681 1.73889 20.8011 1.71558C20.541 1.7049 20.4592 1.81805 20.4611 2.06396C20.4684 2.98895 20.4685 3.91412 20.4612 4.83917C20.4592 5.08887 20.5516 5.19073 20.8059 5.1864C21.4272 5.17584 22.0488 5.18298 22.6703 5.18286Z" fill="#F1F1F1"/>
<path d="M8.75217 13.6814C8.75217 12.2213 8.75217 10.7611 8.75217 9.30095C8.75223 9.20305 8.75715 9.10484 8.75211 9.00718C8.7038 8.07335 9.49265 7.68541 10.2576 8.13853C12.9422 9.7288 15.6532 11.2743 18.355 12.8351C18.6255 12.9914 18.856 13.177 18.9224 13.5033C19.0044 13.9064 18.8353 14.2422 18.4071 14.4919C17.3625 15.1008 16.3145 15.7036 15.2679 16.3089C13.6056 17.2701 11.9434 18.2314 10.2809 19.1922C10.1886 19.2456 10.0969 19.3014 10.0001 19.3453C9.46387 19.5884 8.88242 19.2823 8.78724 18.7009C8.75864 18.5264 8.75532 18.3462 8.75501 18.1687C8.7526 16.673 8.75367 15.1772 8.75367 13.6814H8.75217ZM10.5292 17.0548C12.4854 15.9227 14.3827 14.8248 16.3598 13.6806C14.3804 12.5361 12.4797 11.437 10.5292 10.3091V17.0548Z" fill="#F1F1F1"/>
</svg>
