<svg width="31" height="31" viewBox="0 0 31 31" fill="none" xmlns="http://www.w3.org/2000/svg">
<path d="M29.9832 23.0381L23.1887 18.4552C24.2039 16.3659 24.512 14.003 24.0664 11.7232C22.9342 5.89865 17.2745 2.08114 11.4499 3.21333C5.62532 4.34551 1.80781 10.0052 2.94 15.8298C4.07218 21.6544 9.73188 25.4719 15.5565 24.3397C17.8371 23.8988 19.9125 22.7281 21.4694 21.0041L28.2639 25.5871C28.9655 26.0032 29.87 25.8 30.3262 25.1237C30.7823 24.4475 30.6319 23.5328 29.9832 23.0381ZM5.95805 15.2431C5.14806 11.0761 7.8695 7.04138 12.0366 6.23138C16.2036 5.42139 20.2383 8.14283 21.0483 12.3099C21.8583 16.477 19.1369 20.5117 14.9698 21.3217C10.8039 22.126 6.77284 19.407 5.95805 15.2431Z" fill="#F1F1F1"/>
</svg>
