<svg width="28" height="26" viewBox="0 0 28 26" fill="none" xmlns="http://www.w3.org/2000/svg">
<path d="M0 1.5C0 0.671572 0.671573 0 1.5 0C2.32843 0 3 0.671573 3 1.5V24.5C3 25.3284 2.32843 26 1.5 26C0.671573 26 0 25.3284 0 24.5V1.5Z" fill="#F1F1F1"/>
<path d="M25 1.5C25 0.671572 25.6716 0 26.5 0C27.3284 0 28 0.671573 28 1.5V24.5C28 25.3284 27.3284 26 26.5 26C25.6716 26 25 25.3284 25 24.5V1.5Z" fill="#F1F1F1"/>
<path d="M7 5C7 3.34315 8.34315 2 10 2H18C19.6569 2 21 3.34315 21 5V8C21 9.65685 19.6569 11 18 11H10C8.34315 11 7 9.65685 7 8V5Z" stroke="#F1F1F1" stroke-width="2"/>
<path d="M7 19C7 17.3431 8.34315 16 10 16H18C19.6569 16 21 17.3431 21 19V22C21 23.6569 19.6569 25 18 25H10C8.34315 25 7 23.6569 7 22V19Z" stroke="#F1F1F1" stroke-width="2"/>
</svg>
