<svg width="30" height="26" viewBox="0 0 30 26" fill="none" xmlns="http://www.w3.org/2000/svg">
<path d="M17.1425 0C20.7142 0 23.75 1.25 26.25 3.75C28.75 6.25 30 9.28583 30 12.8575C30 16.4292 28.75 19.465 26.25 21.965C23.75 24.465 20.7142 25.715 17.1425 25.715C13.6158 25.715 10.58 24.465 8.035 21.965L10.1108 19.8892C12.0303 21.8536 14.3742 22.8358 17.1425 22.8358C19.9108 22.8358 22.2658 21.8647 24.2075 19.9225C26.1492 17.9803 27.1203 15.6253 27.1208 12.8575C27.1214 10.0897 26.1503 7.73472 24.2075 5.7925C22.2647 3.85028 19.9097 2.87917 17.1425 2.87917C14.3753 2.87917 12.0206 3.85028 10.0783 5.7925C8.13611 7.73472 7.165 10.0897 7.165 12.8575H11.4508L5.625 18.6167L5.55833 18.4158L0 12.8575H4.28583C4.28583 9.28583 5.53583 6.25 8.03583 3.75C10.5358 1.25 13.5714 5.29819e-07 17.1425 0ZM15.7358 7.165H17.8783V13.1917L22.8333 16.205L21.8292 17.9458L15.735 14.2625L15.7358 7.165Z" fill="#F1F1F1"/>
</svg>
